Coordinates
version=1
nRows=13
nColumns=22
inDegrees=yes

Units are S.I. units (second, meters, Newtons, ...)
If the header above contains a line with 'inDegrees', this indicates whether rotational values are in degrees (yes) or radians (no).

endheader
time	pelvis_tilt	pelvis_list	pelvis_rotation	pelvis_tx	pelvis_ty	pelvis_tz	hip_flexion_r	hip_adduction_r	hip_rotation_r	knee_angle_r	ankle_angle_r	subtalar_angle_r	hip_flexion_l	hip_adduction_l	hip_rotation_l	knee_angle_l	ankle_angle_l	subtalar_angle_l	lumbar_extension	lumbar_bending	lumbar_rotation
      4.14000000	      1.05965988	     -4.36941333	      7.63692283	     -0.07631657	      0.99762394	     -0.56891104	      3.91595757	     17.51433708	     -0.10659263	    -14.94027241	      9.24097922	    -12.61398614	     22.52501591	    -13.36453129	      5.51230575	    -47.17894492	      9.19024075	     -2.06383883	    -15.35374826	      6.10195760	      9.52667475
      4.15000000	      0.81691811	     -4.36591525	      6.66535796	     -0.07036825	      0.99738917	     -0.56868905	      3.55541555	     17.50844481	      0.85114309	    -14.87727062	      9.38782981	    -12.61199674	     22.98440983	    -13.17184480	      5.71341222	    -45.24301212	      9.23145232	     -2.16407632	    -15.28264539	      5.98360094	      9.73778748
      4.16000000	      0.61487504	     -4.30617227	      5.74055085	     -0.06440704	      0.99724703	     -0.56859404	      3.16212362	     17.43178078	      1.76661233	    -14.83470600	      9.56171375	    -12.60368723	     23.35677572	    -12.85360545	      5.88659336	    -43.24200651	      9.13717632	     -2.01959351	    -15.26031728	      5.83378538	      9.87512718
      4.17000000	      0.47514674	     -4.20864010	      4.85839009	     -0.05839208	      0.99720582	     -0.56860179	      2.70004091	     17.30699915	      2.65567975	    -14.78528351	      9.76162619	    -12.58320926	     23.62572670	    -12.44119632	      6.02260968	    -41.19196186	      8.95093519	     -1.36729635	    -15.30601876	      5.67104181	      9.95653949
      4.18000000	      0.32217585	     -4.06951307	      4.03564969	     -0.05236656	      0.99712553	     -0.56872023	      2.28279010	     17.12033460	      3.45663527	    -14.77034154	      9.99309279	    -12.56524730	     23.88974967	    -11.91508759	      6.15453971	    -39.10776664	      8.58171450	     -0.37150747	    -15.33208645	      5.48155620	      9.97050251
      4.19000000	      0.19255075	     -3.91469847	      3.27337488	     -0.04630110	      0.99703574	     -0.56892305	      1.86313039	     16.90602343	      4.18100321	    -14.77091728	     10.22558595	    -12.54592311	     24.11413781	    -11.31852635	      6.28462680	    -36.99521664	      8.05176930	      0.89643951	    -15.38025475	      5.29606284	      9.92342027
      4.20000000	      0.08432461	     -3.74777718	      2.55821727	     -0.04013980	      0.99690937	     -0.56917568	      1.42457689	     16.66930980	      4.85794627	    -14.76313775	     10.49821817	    -12.52972335	     24.29243658	    -10.67606016	      6.37581801	    -34.85460559	      7.44291174	      2.31391162	    -15.44069980	      5.11223097	      9.83868533
      4.21000000	     -0.00016247	     -3.57826427	      1.89187768	     -0.03388428	      0.99673233	     -0.56947049	      0.96413495	     16.42016758	      5.47906423	    -14.74497724	     10.79683533	    -12.51455189	     24.42858182	    -10.00404039	      6.43196239	    -32.69521511	      6.75731153	      3.83491197	    -15.51734164	      4.93925797	      9.72261281
      4.22000000	     -0.06517707	     -3.42278535	      1.27695482	     -0.02753556	      0.99648339	     -0.56979462	      0.48662815	     16.17683192	      6.03831283	    -14.71353162	     11.09897123	    -12.49588646	     24.53449550	     -9.32713253	      6.45431769	    -30.52733688	      6.00081488	      5.41021405	    -15.60606317	      4.79505613	      9.57912581
      4.23000000	     -0.11169725	     -3.28160033	      0.70035911	     -0.02107810	      0.99615432	     -0.57012484	     -0.01390013	     15.94013855	      6.54980124	    -14.66521624	     11.41625773	    -12.46824196	     24.60453913	     -8.65582447	      6.43637825	    -28.35259019	      5.22616798	      6.98291053	    -15.70459816	      4.67648785	      9.42368226
      4.24000000	     -0.14084597	     -3.17465186	      0.16054085	     -0.01454686	      0.99573524	     -0.57044363	     -0.52773811	     15.73447403	      7.02658441	    -14.61449632	     11.71394227	    -12.41995806	     24.65049338	     -8.01617609	      6.38795669	    -26.18987158	      4.46223553	      8.55496926	    -15.82022887	      4.60451742	      9.24017410
      4.25000000	     -0.15789012	     -3.08279089	     -0.35349994	     -0.00788660	      0.99522634	     -0.57074093	     -1.06853754	     15.53688620	      7.46302860	    -14.53719958	     12.03569228	    -12.34631724	     24.65889893	     -7.39354183	      6.31331449	    -24.02534869	      3.77291589	     10.04718153	    -15.93647114	      4.55016901	      9.07902131
      4.26000000	     -0.16608827	     -3.03176681	     -0.84445318	     -0.00114012	      0.99462162	     -0.57100870	     -1.61999609	     15.37979422	      7.89041320	    -14.45936446	     12.32586773	    -12.23702194	     24.64766000	     -6.81559037	      6.24620669	    -21.88834294	      3.17445497	     11.49008391	    -16.05830205	      4.54902310	      8.89533457
